<svg width="512" height="512" viewBox="0 0 512 512" fill="none" xmlns="http://www.w3.org/2000/svg">
  <defs>
    <linearGradient id="bg" x1="64" y1="40" x2="454" y2="468" gradientUnits="userSpaceOnUse">
      <stop offset="0" stop-color="#071425"/>
      <stop offset="0.48" stop-color="#0A2443"/>
      <stop offset="1" stop-color="#050C18"/>
    </linearGradient>
    <radialGradient id="haloBlue" cx="0" cy="0" r="1" gradientUnits="userSpaceOnUse" gradientTransform="translate(188 168) rotate(31) scale(226 200)">
      <stop offset="0" stop-color="#5FE3FF" stop-opacity="0.85"/>
      <stop offset="0.45" stop-color="#157DFF" stop-opacity="0.38"/>
      <stop offset="1" stop-color="#0A1B36" stop-opacity="0"/>
    </radialGradient>
    <radialGradient id="haloWarm" cx="0" cy="0" r="1" gradientUnits="userSpaceOnUse" gradientTransform="translate(300 112) rotate(90) scale(170 170)">
      <stop offset="0" stop-color="#FFD29C" stop-opacity="0.65"/>
      <stop offset="0.42" stop-color="#FF7043" stop-opacity="0.26"/>
      <stop offset="1" stop-color="#FF7043" stop-opacity="0"/>
    </radialGradient>
    <linearGradient id="faceStroke" x1="118" y1="84" x2="391" y2="405" gradientUnits="userSpaceOnUse">
      <stop offset="0" stop-color="#9AF7FF"/>
      <stop offset="0.36" stop-color="#47D3FF"/>
      <stop offset="0.72" stop-color="#5D79FF"/>
      <stop offset="1" stop-color="#FFF0D5"/>
    </linearGradient>
    <linearGradient id="circuitStroke" x1="151" y1="133" x2="353" y2="343" gradientUnits="userSpaceOnUse">
      <stop offset="0" stop-color="#89F8FF"/>
      <stop offset="0.35" stop-color="#44BFFF"/>
      <stop offset="0.68" stop-color="#6A6EFF"/>
      <stop offset="1" stop-color="#F98EFF"/>
    </linearGradient>
    <linearGradient id="beam" x1="260" y1="202" x2="430" y2="202" gradientUnits="userSpaceOnUse">
      <stop offset="0" stop-color="#FFF7D0" stop-opacity="0.25"/>
      <stop offset="0.34" stop-color="#FFAE66" stop-opacity="0.75"/>
      <stop offset="0.7" stop-color="#FF6B4A" stop-opacity="0.82"/>
      <stop offset="1" stop-color="#FFD2AE" stop-opacity="0"/>
    </linearGradient>
    <filter id="softGlow" x="-40%" y="-40%" width="180%" height="180%">
      <feGaussianBlur stdDeviation="7" result="blur"/>
      <feMerge>
        <feMergeNode in="blur"/>
        <feMergeNode in="SourceGraphic"/>
      </feMerge>
    </filter>
    <filter id="lineGlow" x="-30%" y="-30%" width="160%" height="160%">
      <feGaussianBlur stdDeviation="3" result="blur"/>
      <feColorMatrix in="blur" type="matrix" values="1 0 0 0 0 0 1 0 0 0.55 0 0 1 0 0.85 0 0 0 1 0"/>
      <feMerge>
        <feMergeNode/>
        <feMergeNode in="SourceGraphic"/>
      </feMerge>
    </filter>
    <clipPath id="faceClip">
      <path d="M173 102C144 128 128 167 130 207C131 238 143 266 168 292C189 314 201 337 200 367C200 386 205 399 216 409C229 420 247 423 262 417C274 412 281 400 281 387V359C281 347 285 338 295 329L338 289C356 272 367 251 370 227C373 196 360 164 335 141C309 117 276 104 243 101C215 98 190 99 173 102Z"/>
    </clipPath>
  </defs>

  <rect width="512" height="512" rx="36" fill="url(#bg)"/>
  <circle cx="176" cy="176" r="186" fill="url(#haloBlue)"/>
  <circle cx="304" cy="110" r="154" fill="url(#haloWarm)"/>

  <g opacity="0.8">
    <circle cx="69" cy="122" r="2.6" fill="#67E7FF"/>
    <circle cx="93" cy="165" r="1.9" fill="#B4F7FF"/>
    <circle cx="88" cy="212" r="2.3" fill="#4BC5FF"/>
    <circle cx="126" cy="79" r="2.2" fill="#6E7CFF"/>
    <circle cx="151" cy="67" r="2.9" fill="#FFF0D0"/>
    <circle cx="394" cy="78" r="2.7" fill="#FFB56D"/>
    <circle cx="426" cy="108" r="2.2" fill="#67E7FF"/>
    <circle cx="441" cy="142" r="1.7" fill="#82AAFF"/>
    <circle cx="414" cy="221" r="2.7" fill="#FF7D6D"/>
    <circle cx="444" cy="256" r="2.3" fill="#89F8FF"/>
    <circle cx="398" cy="322" r="2.5" fill="#FFD0B2"/>
    <circle cx="436" cy="357" r="1.8" fill="#6D73FF"/>
    <circle cx="110" cy="386" r="2.2" fill="#79F5FF"/>
    <circle cx="152" cy="415" r="2.6" fill="#8BFFBD"/>
    <circle cx="188" cy="433" r="1.8" fill="#FF8D7A"/>
  </g>

  <g filter="url(#softGlow)">
    <path d="M174 104C147 129 131 167 133 205C135 236 146 263 171 289C191 311 203 336 203 365C203 382 207 394 217 403C228 413 244 416 257 411C267 407 274 397 274 385V357C274 342 280 330 292 319L333 281C350 265 360 245 363 224C365 196 354 168 330 145C306 122 275 111 244 108C215 105 191 106 174 104Z" stroke="url(#faceStroke)" stroke-width="3.4" stroke-linecap="round" stroke-linejoin="round"/>
    <path d="M241 138C274 136 305 148 327 171C346 191 355 214 351 239C347 262 333 278 312 291L292 304C275 314 266 329 265 348V390" stroke="url(#faceStroke)" stroke-opacity="0.78" stroke-width="2.1" stroke-linecap="round"/>
  </g>

  <g clip-path="url(#faceClip)" filter="url(#lineGlow)">
    <path d="M160 151H244M170 186H286M180 220H322M164 255H310M184 289H292M171 326H266M150 160V252M184 146V338M220 132V402M257 145V392M291 161V330M324 189V280" stroke="url(#circuitStroke)" stroke-width="1.7" stroke-linecap="round" stroke-opacity="0.85"/>
    <path d="M184 146H210V174H254V208H288V185H322V222H292V255H250V287H219V326H266" stroke="url(#circuitStroke)" stroke-width="2.6" stroke-linejoin="round" stroke-linecap="round"/>
    <path d="M157 244H201V277H238V245H275V211H320V176" stroke="#8BF4FF" stroke-opacity="0.7" stroke-width="2.1" stroke-linecap="round" stroke-linejoin="round"/>
    <path d="M188 353H232V320H271V286H304V249" stroke="#FFB872" stroke-opacity="0.72" stroke-width="2" stroke-linecap="round" stroke-linejoin="round"/>

    <circle cx="211" cy="173" r="4" fill="#89F8FF"/>
    <circle cx="254" cy="207" r="4" fill="#68C6FF"/>
    <circle cx="288" cy="186" r="4" fill="#7A78FF"/>
    <circle cx="322" cy="221" r="4" fill="#FFD2A6"/>
    <circle cx="238" cy="245" r="4" fill="#71F6D4"/>
    <circle cx="275" cy="211" r="4" fill="#62C8FF"/>
    <circle cx="232" cy="320" r="4" fill="#FFA178"/>
    <circle cx="304" cy="249" r="4" fill="#F698FF"/>
  </g>

  <g filter="url(#softGlow)">
    <path d="M258 191C266 185 274 183 283 183C293 183 301 186 308 193" stroke="#C7F8FF" stroke-width="3" stroke-linecap="round" opacity="0.92"/>
    <path d="M262 211H348" stroke="url(#beam)" stroke-width="5" stroke-linecap="round"/>
    <circle cx="260" cy="211" r="6.5" fill="#FFF0C6"/>
    <circle cx="352" cy="211" r="4.5" fill="#FF8A56"/>
  </g>

  <g opacity="0.85" filter="url(#softGlow)">
    <path d="M354 120L384 148" stroke="#FFAF73" stroke-width="2.4" stroke-linecap="round"/>
    <path d="M366 115L401 150" stroke="#7DF1FF" stroke-width="1.8" stroke-linecap="round"/>
    <path d="M92 338L121 362" stroke="#76F2FF" stroke-width="2.2" stroke-linecap="round"/>
    <path d="M104 330L138 364" stroke="#7E8DFF" stroke-width="1.7" stroke-linecap="round"/>
  </g>

  <g transform="translate(286 404)">
    <rect x="-68" y="-26" width="136" height="52" rx="22" fill="#081425" fill-opacity="0.82" stroke="#79DFFF" stroke-opacity="0.5"/>
    <text x="0" y="10" text-anchor="middle" fill="#F4FBFF" font-size="29" font-family="Segoe UI, Arial, sans-serif" font-weight="700" letter-spacing="4">AIP</text>
  </g>
</svg>
